# xmcd
#
# Track frame offsets:
#	150
#	15137
#	29587
#	45147
#	60517
#	74342
#	89745
#	104350
#	117282
#	131930
#	147057
#	162765
#	177500
#	191535
#	206837
#	221902
#	236465
#	251110
#	265330
#	279747
#
# Disc length: 3913 seconds
#
# Revision: 0
# Processed by: cddbd v1.4PL0 Copyright (c) Steve Scherf et al.
# Submitted via: EasyCDDAExtractor 4.6.9.1
#
DISCID=2d0f4714
DTITLE=Mississippi Sheiks - Volume 2
DYEAR=1930
DGENRE=Acoustic
TTITLE0=Sitting On Top Of The World No. 2
TTITLE1=Your Good Man Caught The Train And Gone
TTITLE2=Times Done Got Hard
TTITLE3=Unhappy Blues
TTITLE4=Still I'm Travelling On
TTITLE5=Honey Babe Let The Deal Go Down
TTITLE6=She Ain't No Good
TTITLE7=Ramrod Blues
TTITLE8=Stop And Listen Blues No. 2
TTITLE9=Church Bell Blues
TTITLE10=Please Don't Wake It Up
TTITLE11=Please Baby
TTITLE12=Things About Comin' My Way
TTITLE13=The World Is Going Wrong
TTITLE14=She's A Bad Girl
TTITLE15=Tell Me What The Cats Fight About
TTITLE16=Kind Treatment
TTITLE17=Livin' In A Strain
TTITLE18=Lazy Lazy River
TTITLE19=Too Long
EXTD=
EXTT0=
EXTT1=
EXTT2=
EXTT3=
EXTT4=
EXTT5=
EXTT6=
EXTT7=
EXTT8=
EXTT9=
EXTT10=
EXTT11=
EXTT12=
EXTT13=
EXTT14=
EXTT15=
EXTT16=
EXTT17=
EXTT18=
EXTT19=
PLAYORDER=
